<svg width="216" height="50" viewBox="0 0 216 50" fill="none" xmlns="http://www.w3.org/2000/svg">
<mask id="path-1-outside-1_1_29" maskUnits="userSpaceOnUse" x="0" y="0" width="216" height="50" fill="black">
<rect fill="white" width="216" height="50"/>
<path d="M18.5587 3.70697C23.7479 3.70697 27.7519 5.13663 30.5708 7.99594C33.3896 10.8238 34.799 14.5315 34.799 19.119C34.799 22.6381 33.8701 25.8902 32.0122 28.8752C30.1864 31.8602 27.5757 34.3896 24.1803 36.4633C19.4396 38.003 14.5226 38.7571 9.42947 38.7257C6.35437 37.9087 4.54455 36.4476 4 34.3424C6.69071 27.1784 8.53257 21.1299 9.52557 16.1968L9.66971 8.93856L7.74777 9.26849C6.94697 8.64007 6.4825 7.93309 6.35437 7.14757C6.25827 6.36204 6.45047 5.73362 6.93095 5.26231C10.1982 4.22542 14.0741 3.70697 18.5587 3.70697ZM13.5136 22.701L11.8799 34.7666C15.0832 34.6723 17.854 34.2796 20.1923 33.5883C25.1893 29.9121 27.6879 25.3089 27.6879 19.7788C27.6558 16.2282 26.791 13.4161 25.0932 11.3423C23.4276 9.23706 20.849 8.20017 17.3575 8.23159C15.4035 15.6784 14.1222 20.5015 13.5136 22.701Z"/>
<path d="M52.1115 12.3792C55.3147 12.8819 57.4929 14.1859 58.646 16.2911C59.8312 18.3649 60.0555 20.8471 59.3187 23.7378C53.9373 26.2515 48.7801 27.9954 43.8471 28.9694C44.2956 31.5145 45.689 33.3998 48.0273 34.6252C51.5829 33.8083 54.5299 32.5043 56.8683 30.7133C58.6621 30.6505 59.3988 31.6402 59.0785 33.6826C58.0534 34.7823 56.3077 35.8349 53.8412 36.8404C51.3747 37.8144 49.1485 38.4429 47.1625 38.7257C43.6069 38.0972 40.9642 36.7618 39.2345 34.7195C37.5368 32.6457 36.72 30.1949 36.784 27.367C36.8801 25.0104 37.713 22.701 39.2825 20.4386C43.2866 16.3225 47.5629 13.636 52.1115 12.3792ZM43.703 26.0944V26.2358C47.1625 25.2303 50.3657 24.0206 53.3127 22.6067C53.6971 19.5589 52.7841 17.4222 50.5739 16.1968L49.7571 16.4796C48.0273 17.6422 46.6019 19.1347 45.4808 20.9571C44.3597 22.7795 43.7671 24.4919 43.703 26.0944Z"/>
<path d="M80.5914 14.3116C82.0008 13.2432 83.4102 12.6462 84.8197 12.5206C86.2291 12.3949 87.3822 12.7719 88.2791 13.6517C86.9658 23.078 82.9618 31.3889 76.267 38.5843C74.4732 38.8356 72.7275 38.6785 71.0298 38.1129C69.3321 37.5474 68.1308 36.6362 67.4261 35.3793C67.9707 32.1115 68.243 29.535 68.243 27.6498C68.275 25.7645 68.0027 23.7536 67.4261 21.6169L63.294 16.7153C64.5112 13.9188 66.8976 12.6148 70.4532 12.8033C73.5603 17.1709 74.7615 24.1935 74.0568 33.8711L74.5373 34.1539C78.7335 29.3465 81.3602 24.6019 82.4172 19.9202L80.5914 14.3116Z"/>
<path d="M123.004 38.7257C121.082 38.7257 119.144 37.9558 117.19 36.4162C115.236 34.8766 113.65 32.9756 112.433 30.7133C111.248 28.4196 110.655 26.2201 110.655 24.1149C110.655 20.7529 111.504 17.4694 113.202 14.2644C114.9 11.0281 117.126 8.40441 119.881 6.39346C122.668 4.38252 125.534 3.37705 128.481 3.37705C130.083 3.37705 131.765 4.20971 133.526 5.87502C135.32 7.50891 136.826 9.66125 138.043 12.332C139.26 15.0028 139.885 17.7836 139.917 20.6743C139.949 23.5336 138.636 26.7228 135.977 30.242C133.35 33.7611 130.419 36.2434 127.184 37.6888L128.577 40.0925L134.68 42.7318C134.616 44.3971 133.911 45.5754 132.566 46.2667C131.22 46.9894 129.715 47.1779 128.049 46.8323L123.484 38.7257H123.004ZM117.526 23.4079C117.526 25.7331 118.007 27.9483 118.968 30.0535C119.929 32.1272 121.258 33.8083 122.956 35.0965C128.177 31.8916 131.685 27.3355 133.478 21.4284C133.126 18.2863 132.549 15.5684 131.749 13.2747C130.98 10.9809 129.763 8.89143 128.097 7.00617C124.99 8.76575 122.443 11.1695 120.457 14.2173C118.503 17.2651 117.526 20.3287 117.526 23.4079Z"/>
<path d="M169.789 14.83L165.849 22.2768C165.465 26.8014 165.353 32.0644 165.513 38.0658C164.456 38.6628 163.11 38.8513 161.477 38.6314C159.875 38.38 158.53 37.783 157.441 36.8404L159.699 31.5145L159.122 31.0432C157.809 32.74 155.519 35.3008 152.251 38.7257C146.486 38.0344 143.138 36.0863 142.209 32.8814L145.236 25.1989C145.204 23.9735 145.204 22.7795 145.236 21.6169C145.268 18.3806 145.22 15.5055 145.092 12.9919C146.534 12.5834 147.991 12.5363 149.465 12.8505C150.97 13.1333 152.155 13.7774 153.02 14.7829C152.764 18.2392 151.435 23.8164 149.032 31.5145C149.353 32.4886 150.474 33.2584 152.396 33.824C155.503 30.9332 157.761 28.4981 159.17 26.5186C160.26 20.6429 161.301 16.1183 162.294 12.9447C164.504 12.6934 166.169 12.7091 167.291 12.9919C168.444 13.2747 169.277 13.8874 169.789 14.83Z"/>
<path d="M175.717 22.3239L175.477 14.0288C178.872 12.552 181.419 12.4734 183.117 13.7931L181.002 21.0042C180.65 24.3663 180.202 30.0535 179.657 38.0658C178.44 38.6942 176.966 38.867 175.237 38.5843C173.539 38.3015 172.322 37.6888 171.585 36.7461C173.347 32.033 174.724 27.2256 175.717 22.3239ZM183.885 6.67625C183.917 7.71315 183.565 8.60864 182.828 9.36275C182.092 10.0854 181.179 10.4468 180.09 10.4468C179.032 10.4468 178.12 10.0854 177.351 9.36275C176.582 8.60864 176.182 7.72886 176.15 6.72339C176.118 5.68649 176.486 4.80671 177.255 4.08402C178.023 3.36134 178.936 3 179.993 3C181.082 3 181.995 3.36134 182.732 4.08402C183.469 4.77528 183.853 5.63936 183.885 6.67625Z"/>
<path d="M193.453 21.8997C191.66 22.1197 190.282 22.0568 189.321 21.7112C188.36 21.3341 187.688 20.6429 187.303 19.6374C188.488 15.9926 190.554 13.7146 193.501 12.8033C198.627 14.2801 202.47 15.1599 205.033 15.4427L206.09 12.8033C207.884 12.7405 209.229 12.9133 210.126 13.3218C211.055 13.7303 211.68 14.4687 212 15.537C211.744 16.9509 210.927 18.4905 209.55 20.1559C208.172 21.8212 206.426 23.4551 204.312 25.0575C200.597 27.9483 196.721 30.5562 192.685 32.8814L192.781 33.3998C192.973 33.4312 194.35 33.5098 196.913 33.6355C199.475 33.7611 201.429 33.934 202.775 34.1539C203.319 33.117 203.784 31.8445 204.168 30.3363C207.692 29.4879 209.662 30.2891 210.078 32.74C209.021 35.505 206.907 37.5002 203.736 38.7257C200.885 37.6573 196.785 36.7461 191.435 35.992L191.195 36.1806L191.627 37.5474C190.795 38.5528 189.001 38.9456 186.246 38.7257C185.477 37.8144 185.109 36.7776 185.141 35.615C185.205 34.4524 185.686 33.3684 186.582 32.3629C187.511 31.326 188.713 30.3205 190.186 29.3465C191.692 28.341 193.229 27.3355 194.799 26.3301C198.995 23.6907 201.974 21.1927 203.736 18.8362L203.543 18.412C201.269 18.2863 198.546 17.8778 195.375 17.1866C194.382 18.3806 193.742 19.9516 193.453 21.8997Z"/>
</mask>
<path d="M18.5587 3.70697C23.7479 3.70697 27.7519 5.13663 30.5708 7.99594C33.3896 10.8238 34.799 14.5315 34.799 19.119C34.799 22.6381 33.8701 25.8902 32.0122 28.8752C30.1864 31.8602 27.5757 34.3896 24.1803 36.4633C19.4396 38.003 14.5226 38.7571 9.42947 38.7257C6.35437 37.9087 4.54455 36.4476 4 34.3424C6.69071 27.1784 8.53257 21.1299 9.52557 16.1968L9.66971 8.93856L7.74777 9.26849C6.94697 8.64007 6.4825 7.93309 6.35437 7.14757C6.25827 6.36204 6.45047 5.73362 6.93095 5.26231C10.1982 4.22542 14.0741 3.70697 18.5587 3.70697ZM13.5136 22.701L11.8799 34.7666C15.0832 34.6723 17.854 34.2796 20.1923 33.5883C25.1893 29.9121 27.6879 25.3089 27.6879 19.7788C27.6558 16.2282 26.791 13.4161 25.0932 11.3423C23.4276 9.23706 20.849 8.20017 17.3575 8.23159C15.4035 15.6784 14.1222 20.5015 13.5136 22.701Z" fill="#F1C32D"/>
<path d="M52.1115 12.3792C55.3147 12.8819 57.4929 14.1859 58.646 16.2911C59.8312 18.3649 60.0555 20.8471 59.3187 23.7378C53.9373 26.2515 48.7801 27.9954 43.8471 28.9694C44.2956 31.5145 45.689 33.3998 48.0273 34.6252C51.5829 33.8083 54.5299 32.5043 56.8683 30.7133C58.6621 30.6505 59.3988 31.6402 59.0785 33.6826C58.0534 34.7823 56.3077 35.8349 53.8412 36.8404C51.3747 37.8144 49.1485 38.4429 47.1625 38.7257C43.6069 38.0972 40.9642 36.7618 39.2345 34.7195C37.5368 32.6457 36.72 30.1949 36.784 27.367C36.8801 25.0104 37.713 22.701 39.2825 20.4386C43.2866 16.3225 47.5629 13.636 52.1115 12.3792ZM43.703 26.0944V26.2358C47.1625 25.2303 50.3657 24.0206 53.3127 22.6067C53.6971 19.5589 52.7841 17.4222 50.5739 16.1968L49.7571 16.4796C48.0273 17.6422 46.6019 19.1347 45.4808 20.9571C44.3597 22.7795 43.7671 24.4919 43.703 26.0944Z" fill="#F1C32D"/>
<path d="M80.5914 14.3116C82.0008 13.2432 83.4102 12.6462 84.8197 12.5206C86.2291 12.3949 87.3822 12.7719 88.2791 13.6517C86.9658 23.078 82.9618 31.3889 76.267 38.5843C74.4732 38.8356 72.7275 38.6785 71.0298 38.1129C69.3321 37.5474 68.1308 36.6362 67.4261 35.3793C67.9707 32.1115 68.243 29.535 68.243 27.6498C68.275 25.7645 68.0027 23.7536 67.4261 21.6169L63.294 16.7153C64.5112 13.9188 66.8976 12.6148 70.4532 12.8033C73.5603 17.1709 74.7615 24.1935 74.0568 33.8711L74.5373 34.1539C78.7335 29.3465 81.3602 24.6019 82.4172 19.9202L80.5914 14.3116Z" fill="#F1C32D"/>
<path d="M123.004 38.7257C121.082 38.7257 119.144 37.9558 117.19 36.4162C115.236 34.8766 113.65 32.9756 112.433 30.7133C111.248 28.4196 110.655 26.2201 110.655 24.1149C110.655 20.7529 111.504 17.4694 113.202 14.2644C114.9 11.0281 117.126 8.40441 119.881 6.39346C122.668 4.38252 125.534 3.37705 128.481 3.37705C130.083 3.37705 131.765 4.20971 133.526 5.87502C135.32 7.50891 136.826 9.66125 138.043 12.332C139.26 15.0028 139.885 17.7836 139.917 20.6743C139.949 23.5336 138.636 26.7228 135.977 30.242C133.35 33.7611 130.419 36.2434 127.184 37.6888L128.577 40.0925L134.68 42.7318C134.616 44.3971 133.911 45.5754 132.566 46.2667C131.22 46.9894 129.715 47.1779 128.049 46.8323L123.484 38.7257H123.004ZM117.526 23.4079C117.526 25.7331 118.007 27.9483 118.968 30.0535C119.929 32.1272 121.258 33.8083 122.956 35.0965C128.177 31.8916 131.685 27.3355 133.478 21.4284C133.126 18.2863 132.549 15.5684 131.749 13.2747C130.98 10.9809 129.763 8.89143 128.097 7.00617C124.99 8.76575 122.443 11.1695 120.457 14.2173C118.503 17.2651 117.526 20.3287 117.526 23.4079Z" fill="#F1C32D"/>
<path d="M169.789 14.83L165.849 22.2768C165.465 26.8014 165.353 32.0644 165.513 38.0658C164.456 38.6628 163.11 38.8513 161.477 38.6314C159.875 38.38 158.53 37.783 157.441 36.8404L159.699 31.5145L159.122 31.0432C157.809 32.74 155.519 35.3008 152.251 38.7257C146.486 38.0344 143.138 36.0863 142.209 32.8814L145.236 25.1989C145.204 23.9735 145.204 22.7795 145.236 21.6169C145.268 18.3806 145.22 15.5055 145.092 12.9919C146.534 12.5834 147.991 12.5363 149.465 12.8505C150.97 13.1333 152.155 13.7774 153.02 14.7829C152.764 18.2392 151.435 23.8164 149.032 31.5145C149.353 32.4886 150.474 33.2584 152.396 33.824C155.503 30.9332 157.761 28.4981 159.17 26.5186C160.26 20.6429 161.301 16.1183 162.294 12.9447C164.504 12.6934 166.169 12.7091 167.291 12.9919C168.444 13.2747 169.277 13.8874 169.789 14.83Z" fill="#F1C32D"/>
<path d="M175.717 22.3239L175.477 14.0288C178.872 12.552 181.419 12.4734 183.117 13.7931L181.002 21.0042C180.65 24.3663 180.202 30.0535 179.657 38.0658C178.44 38.6942 176.966 38.867 175.237 38.5843C173.539 38.3015 172.322 37.6888 171.585 36.7461C173.347 32.033 174.724 27.2256 175.717 22.3239ZM183.885 6.67625C183.917 7.71315 183.565 8.60864 182.828 9.36275C182.092 10.0854 181.179 10.4468 180.09 10.4468C179.032 10.4468 178.12 10.0854 177.351 9.36275C176.582 8.60864 176.182 7.72886 176.15 6.72339C176.118 5.68649 176.486 4.80671 177.255 4.08402C178.023 3.36134 178.936 3 179.993 3C181.082 3 181.995 3.36134 182.732 4.08402C183.469 4.77528 183.853 5.63936 183.885 6.67625Z" fill="#F1C32D"/>
<path d="M193.453 21.8997C191.66 22.1197 190.282 22.0568 189.321 21.7112C188.36 21.3341 187.688 20.6429 187.303 19.6374C188.488 15.9926 190.554 13.7146 193.501 12.8033C198.627 14.2801 202.47 15.1599 205.033 15.4427L206.09 12.8033C207.884 12.7405 209.229 12.9133 210.126 13.3218C211.055 13.7303 211.68 14.4687 212 15.537C211.744 16.9509 210.927 18.4905 209.55 20.1559C208.172 21.8212 206.426 23.4551 204.312 25.0575C200.597 27.9483 196.721 30.5562 192.685 32.8814L192.781 33.3998C192.973 33.4312 194.35 33.5098 196.913 33.6355C199.475 33.7611 201.429 33.934 202.775 34.1539C203.319 33.117 203.784 31.8445 204.168 30.3363C207.692 29.4879 209.662 30.2891 210.078 32.74C209.021 35.505 206.907 37.5002 203.736 38.7257C200.885 37.6573 196.785 36.7461 191.435 35.992L191.195 36.1806L191.627 37.5474C190.795 38.5528 189.001 38.9456 186.246 38.7257C185.477 37.8144 185.109 36.7776 185.141 35.615C185.205 34.4524 185.686 33.3684 186.582 32.3629C187.511 31.326 188.713 30.3205 190.186 29.3465C191.692 28.341 193.229 27.3355 194.799 26.3301C198.995 23.6907 201.974 21.1927 203.736 18.8362L203.543 18.412C201.269 18.2863 198.546 17.8778 195.375 17.1866C194.382 18.3806 193.742 19.9516 193.453 21.8997Z" fill="#F1C32D"/>
<path d="M18.5587 3.70697C23.7479 3.70697 27.7519 5.13663 30.5708 7.99594C33.3896 10.8238 34.799 14.5315 34.799 19.119C34.799 22.6381 33.8701 25.8902 32.0122 28.8752C30.1864 31.8602 27.5757 34.3896 24.1803 36.4633C19.4396 38.003 14.5226 38.7571 9.42947 38.7257C6.35437 37.9087 4.54455 36.4476 4 34.3424C6.69071 27.1784 8.53257 21.1299 9.52557 16.1968L9.66971 8.93856L7.74777 9.26849C6.94697 8.64007 6.4825 7.93309 6.35437 7.14757C6.25827 6.36204 6.45047 5.73362 6.93095 5.26231C10.1982 4.22542 14.0741 3.70697 18.5587 3.70697ZM13.5136 22.701L11.8799 34.7666C15.0832 34.6723 17.854 34.2796 20.1923 33.5883C25.1893 29.9121 27.6879 25.3089 27.6879 19.7788C27.6558 16.2282 26.791 13.4161 25.0932 11.3423C23.4276 9.23706 20.849 8.20017 17.3575 8.23159C15.4035 15.6784 14.1222 20.5015 13.5136 22.701Z" stroke="#202020" stroke-width="6" mask="url(#path-1-outside-1_1_29)"/>
<path d="M52.1115 12.3792C55.3147 12.8819 57.4929 14.1859 58.646 16.2911C59.8312 18.3649 60.0555 20.8471 59.3187 23.7378C53.9373 26.2515 48.7801 27.9954 43.8471 28.9694C44.2956 31.5145 45.689 33.3998 48.0273 34.6252C51.5829 33.8083 54.5299 32.5043 56.8683 30.7133C58.6621 30.6505 59.3988 31.6402 59.0785 33.6826C58.0534 34.7823 56.3077 35.8349 53.8412 36.8404C51.3747 37.8144 49.1485 38.4429 47.1625 38.7257C43.6069 38.0972 40.9642 36.7618 39.2345 34.7195C37.5368 32.6457 36.72 30.1949 36.784 27.367C36.8801 25.0104 37.713 22.701 39.2825 20.4386C43.2866 16.3225 47.5629 13.636 52.1115 12.3792ZM43.703 26.0944V26.2358C47.1625 25.2303 50.3657 24.0206 53.3127 22.6067C53.6971 19.5589 52.7841 17.4222 50.5739 16.1968L49.7571 16.4796C48.0273 17.6422 46.6019 19.1347 45.4808 20.9571C44.3597 22.7795 43.7671 24.4919 43.703 26.0944Z" stroke="#202020" stroke-width="6" mask="url(#path-1-outside-1_1_29)"/>
<path d="M80.5914 14.3116C82.0008 13.2432 83.4102 12.6462 84.8197 12.5206C86.2291 12.3949 87.3822 12.7719 88.2791 13.6517C86.9658 23.078 82.9618 31.3889 76.267 38.5843C74.4732 38.8356 72.7275 38.6785 71.0298 38.1129C69.3321 37.5474 68.1308 36.6362 67.4261 35.3793C67.9707 32.1115 68.243 29.535 68.243 27.6498C68.275 25.7645 68.0027 23.7536 67.4261 21.6169L63.294 16.7153C64.5112 13.9188 66.8976 12.6148 70.4532 12.8033C73.5603 17.1709 74.7615 24.1935 74.0568 33.8711L74.5373 34.1539C78.7335 29.3465 81.3602 24.6019 82.4172 19.9202L80.5914 14.3116Z" stroke="#202020" stroke-width="6" mask="url(#path-1-outside-1_1_29)"/>
<path d="M123.004 38.7257C121.082 38.7257 119.144 37.9558 117.19 36.4162C115.236 34.8766 113.65 32.9756 112.433 30.7133C111.248 28.4196 110.655 26.2201 110.655 24.1149C110.655 20.7529 111.504 17.4694 113.202 14.2644C114.9 11.0281 117.126 8.40441 119.881 6.39346C122.668 4.38252 125.534 3.37705 128.481 3.37705C130.083 3.37705 131.765 4.20971 133.526 5.87502C135.32 7.50891 136.826 9.66125 138.043 12.332C139.26 15.0028 139.885 17.7836 139.917 20.6743C139.949 23.5336 138.636 26.7228 135.977 30.242C133.35 33.7611 130.419 36.2434 127.184 37.6888L128.577 40.0925L134.68 42.7318C134.616 44.3971 133.911 45.5754 132.566 46.2667C131.22 46.9894 129.715 47.1779 128.049 46.8323L123.484 38.7257H123.004ZM117.526 23.4079C117.526 25.7331 118.007 27.9483 118.968 30.0535C119.929 32.1272 121.258 33.8083 122.956 35.0965C128.177 31.8916 131.685 27.3355 133.478 21.4284C133.126 18.2863 132.549 15.5684 131.749 13.2747C130.98 10.9809 129.763 8.89143 128.097 7.00617C124.99 8.76575 122.443 11.1695 120.457 14.2173C118.503 17.2651 117.526 20.3287 117.526 23.4079Z" stroke="#202020" stroke-width="6" mask="url(#path-1-outside-1_1_29)"/>
<path d="M169.789 14.83L165.849 22.2768C165.465 26.8014 165.353 32.0644 165.513 38.0658C164.456 38.6628 163.11 38.8513 161.477 38.6314C159.875 38.38 158.53 37.783 157.441 36.8404L159.699 31.5145L159.122 31.0432C157.809 32.74 155.519 35.3008 152.251 38.7257C146.486 38.0344 143.138 36.0863 142.209 32.8814L145.236 25.1989C145.204 23.9735 145.204 22.7795 145.236 21.6169C145.268 18.3806 145.22 15.5055 145.092 12.9919C146.534 12.5834 147.991 12.5363 149.465 12.8505C150.97 13.1333 152.155 13.7774 153.02 14.7829C152.764 18.2392 151.435 23.8164 149.032 31.5145C149.353 32.4886 150.474 33.2584 152.396 33.824C155.503 30.9332 157.761 28.4981 159.17 26.5186C160.26 20.6429 161.301 16.1183 162.294 12.9447C164.504 12.6934 166.169 12.7091 167.291 12.9919C168.444 13.2747 169.277 13.8874 169.789 14.83Z" stroke="#202020" stroke-width="6" mask="url(#path-1-outside-1_1_29)"/>
<path d="M175.717 22.3239L175.477 14.0288C178.872 12.552 181.419 12.4734 183.117 13.7931L181.002 21.0042C180.65 24.3663 180.202 30.0535 179.657 38.0658C178.44 38.6942 176.966 38.867 175.237 38.5843C173.539 38.3015 172.322 37.6888 171.585 36.7461C173.347 32.033 174.724 27.2256 175.717 22.3239ZM183.885 6.67625C183.917 7.71315 183.565 8.60864 182.828 9.36275C182.092 10.0854 181.179 10.4468 180.09 10.4468C179.032 10.4468 178.12 10.0854 177.351 9.36275C176.582 8.60864 176.182 7.72886 176.15 6.72339C176.118 5.68649 176.486 4.80671 177.255 4.08402C178.023 3.36134 178.936 3 179.993 3C181.082 3 181.995 3.36134 182.732 4.08402C183.469 4.77528 183.853 5.63936 183.885 6.67625Z" stroke="#202020" stroke-width="6" mask="url(#path-1-outside-1_1_29)"/>
<path d="M193.453 21.8997C191.66 22.1197 190.282 22.0568 189.321 21.7112C188.36 21.3341 187.688 20.6429 187.303 19.6374C188.488 15.9926 190.554 13.7146 193.501 12.8033C198.627 14.2801 202.47 15.1599 205.033 15.4427L206.09 12.8033C207.884 12.7405 209.229 12.9133 210.126 13.3218C211.055 13.7303 211.68 14.4687 212 15.537C211.744 16.9509 210.927 18.4905 209.55 20.1559C208.172 21.8212 206.426 23.4551 204.312 25.0575C200.597 27.9483 196.721 30.5562 192.685 32.8814L192.781 33.3998C192.973 33.4312 194.35 33.5098 196.913 33.6355C199.475 33.7611 201.429 33.934 202.775 34.1539C203.319 33.117 203.784 31.8445 204.168 30.3363C207.692 29.4879 209.662 30.2891 210.078 32.74C209.021 35.505 206.907 37.5002 203.736 38.7257C200.885 37.6573 196.785 36.7461 191.435 35.992L191.195 36.1806L191.627 37.5474C190.795 38.5528 189.001 38.9456 186.246 38.7257C185.477 37.8144 185.109 36.7776 185.141 35.615C185.205 34.4524 185.686 33.3684 186.582 32.3629C187.511 31.326 188.713 30.3205 190.186 29.3465C191.692 28.341 193.229 27.3355 194.799 26.3301C198.995 23.6907 201.974 21.1927 203.736 18.8362L203.543 18.412C201.269 18.2863 198.546 17.8778 195.375 17.1866C194.382 18.3806 193.742 19.9516 193.453 21.8997Z" stroke="#202020" stroke-width="6" mask="url(#path-1-outside-1_1_29)"/>
</svg>
